:SAMPLES-PER-SECOND 30
:FULLY-SPECIFIED
:DEGREES
276
root  -9.41116 35.6954 -2.05717 109.987 -84.2467 -91.0384
RightUpLeg  -45.3038 -15.1551 1.41847
RightLeg  46.0335 0.103585 -0.209886
RightFoot  -14.4519 0.0348072 4.89935
RightToes  -1.16417e-010 0 -3.6325e-017
Spine  30.6083 -2.48659 -1.2883
Spine1  15.7422 -1.9134 -3.81696
HEad  -48.086 -22.1358 17.7827
LeftShoulder1  1.99211 -3.92419 -20.3881
LeftArm  -17.0966 -34.6728 -36.8908
LeftForeArm  21.2682 -10.3501 -3.19954
LeftHand  0.00596658 8.46086 1.85899
RightShoulder  0.244196 -2.57857 20.6661
RightArm  5.42853 12.7747 57.8658
RightForeArm  81.7141 79.616 62.2024
RightHand  -0.0773577 1.07183 -1.4955
LeftUpLeg  -49.5441 8.51492 10.7987
LeftLeg  51.3595 1.02744 1.84872
LeftFoot  -15.8413 0.0589382 -0.919837
LeftToes  1.47335e-010 -1.29615e-010 3.08757e-011
277
root  -9.63641 35.9406 -2.03815 103.822 -82.8938 -82.5388
RightUpLeg  -46.2769 -15.2432 3.43282
RightLeg  43.8648 -0.25901 -0.553608
RightFoot  -13.207 -0.0019056 5.39702
RightToes  -1.16417e-010 0 -3.6325e-017
Spine  27.0897 -3.45933 1.71921
Spine1  15.1385 -2.35645 -3.63989
HEad  -49.242 -22.737 18.5683
LeftShoulder1  1.89689 -3.49915 -20.6704
LeftArm  -15.9848 -32.6555 -38.703
LeftForeArm  21.6642 -10.5861 -3.4343
LeftHand  0.00247292 8.90951 1.58427
RightShoulder  0.228589 -2.64037 20.8135
RightArm  5.67597 12.7538 57.8464
RightForeArm  66.0738 77.4043 46.3841
RightHand  -0.0543165 0.979772 -1.09513
LeftUpLeg  -51.1527 8.62517 11.8993
LeftLeg  49.8807 0.829424 1.51332
LeftFoot  -15.0731 0.0550277 -1.09976
LeftToes  1.47335e-010 -1.29615e-010 3.08757e-011
278
root  -10.0234 36.1167 -2.19125 99.0153 -79.9874 -72.3343
RightUpLeg  -49.9399 -14.1736 7.87546
RightLeg  41.1585 -1.50227 -1.70641
RightFoot  -11.9108 -0.051803 5.79032
RightToes  -1.16417e-010 0 -3.6325e-017
Spine  23.2012 -3.81824 5.73501
Spine1  11.6794 -2.60302 -2.38534
HEad  -49.8965 -23.7242 19.5421
LeftShoulder1  1.84119 -3.39796 -20.2401
LeftArm  -14.4911 -30.9644 -40.3243
LeftForeArm  22.5013 -10.4866 -3.89645
LeftHand  -0.0192595 8.6215 0.953716
RightShoulder  0.198804 -2.76206 21.363
RightArm  5.59104 12.4133 57.4999
RightForeArm  55.5253 74.6006 36.1461
RightHand  -0.060548 1.52518 -1.15644
LeftUpLeg  -55.9957 9.80591 14.3786
LeftLeg  48.5364 0.257201 0.751848
LeftFoot  -14.1632 0.0500696 -1.39804
LeftToes  1.47335e-010 -1.29615e-010 3.08757e-011
279
root  -10.1442 36.4772 -2.26034 101.616 -80.7469 -76.6956
RightUpLeg  -46.99 -13.7618 6.61693
RightLeg  39.4265 -1.58975 -1.67959
RightFoot  -10.9169 -0.0958701 5.90035
RightToes  -1.16417e-010 0 -3.6325e-017
Spine  23.7456 -3.67625 5.28592
Spine1  11.2955 -2.53586 -1.952
HEad  -50.1829 -24.4573 19.562
LeftShoulder1  1.75156 -2.88392 -21.0299
LeftArm  -13.2495 -29.9376 -41.0267
LeftForeArm  23.0208 -10.9511 -4.36399
LeftHand  -0.0347089 9.06396 0.446982
RightShoulder  0.159896 -2.91119 21.8193
RightArm  5.87198 12.6046 57.1066
RightForeArm  46.4792 70.8439 27.9179
RightHand  -0.0781465 1.84015 -1.42084
LeftUpLeg  -52.5943 10.1637 13.7469
LeftLeg  46.4041 0.150314 0.591963
LeftFoot  -13.558 0.0566917 -1.28548
LeftToes  1.47335e-010 -1.29615e-010 3.08757e-011
280
root  -10.3213 36.7969 -2.35141 102.431 -81.3962 -78.24
RightUpLeg  -45.0996 -13.5579 5.77502
RightLeg  37.8004 -1.73908 -1.71535
RightFoot  -10.0142 -0.1382 6.02291
RightToes  -1.16417e-010 0 -3.6325e-017
Spine  22.7586 -3.38432 4.71311
Spine1  11.4766 -2.81058 -0.345189
HEad  -50.7002 -24.9768 19.4838
LeftShoulder1  1.65199 -2.3539 -21.8548
LeftArm  -12.4114 -28.7978 -42.345
LeftForeArm  23.3477 -11.501 -4.48635
LeftHand  -0.0490745 8.85261 -0.0166526
RightShoulder  0.187861 -2.79613 21.0797
RightArm  5.52023 12.2317 57.2731
RightForeArm  41.1747 66.997 22.5615
RightHand  -0.0753903 2.08311 -1.35039
LeftUpLeg  -50.3296 10.1693 13.2576
LeftLeg  44.2644 0.139874 0.558311
LeftFoot  -12.8232 0.0575866 -1.48016
LeftToes  1.47335e-010 -1.29615e-010 3.08757e-011
